# xmcd
#
# Track frame offsets: 
#        150
#        21005
#        39037
#        60467
#        85127
#        97892
#        119231
#        136088
#        147918
#        168467
#        187162
#
# Disc length: 2836 seconds
#
# Revision: 0
# Processed by: cddbd v1.5.1PL2 Copyright (c) Steve Scherf et al.
# Submitted via: ExactAudioCopy v0.95a5
#
DISCID=8e0b120b
DTITLE=Florrie and Nattergalene - Room for You
DYEAR=2001
DGENRE=Blues
TTITLE0=Bad Habits
TTITLE1=Just a Woman
TTITLE2=Take it Slow
TTITLE3=Bad Conscience
TTITLE4=Sister
TTITLE5=Relax
TTITLE6=Hooked
TTITLE7=Ain't Got No Lover
TTITLE8=Room For You
TTITLE9=Unspoken Secret
TTITLE10=Friday Night (Live)
EXTD=
EXTT0=
EXTT1=
EXTT2=
EXTT3=
EXTT4=
EXTT5=
EXTT6=
EXTT7=
EXTT8=
EXTT9=
EXTT10=
PLAYORDER=
